#!OML:ASF F:\VICON\USERDATA\INSTALL\rory3\rory3.ASF
:FULLY-SPECIFIED
:DEGREES
429
root 0.513962 16.4414 -13.9469 26.5657 -9.13101 -3.56765
lowerback -19.6089 1.27231 -3.8335
upperback -10.6576 2.22603 1.30988
thorax -0.762789 1.31613 3.96641
lowerneck -10.4279 -0.989742 0.414037
upperneck 38.0479 -2.36857 1.75977
head 14.9945 -0.7408 0.293157
rclavicle 4.85407e-014 -4.37326e-015
rhumerus -56.2291 13.0978 -93.2916
rradius 19.6929
rwrist -8.6688
rhand 27.0511 4.4461
rfingers 7.12502
rthumb 51.0373 -16.2144
lclavicle 4.85407e-014 -4.37326e-015
lhumerus -50.7219 -15.0009 91.5137
lradius 36.3669
lwrist 1.73926
lhand 19.7401 16.8052
lfingers 7.12502
lthumb 44.2929 40.5779
rfemur -18.5795 -1.87362 31.3467
rtibia 42.9538
rfoot 22.882 -22.5261
rtoes 17.0734
lfemur -48.3828 5.14004 -32.3256
ltibia 39.6999
lfoot -50.6864 28.2476
ltoes 24.2355
430
root 0.510381 16.4412 -13.9526 26.52 -9.21736 -3.62963
lowerback -19.4789 1.27413 -3.86003
upperback -10.6851 2.22671 1.37058
thorax -0.863037 1.32239 4.04082
lowerneck -10.25 -0.996531 0.277509
upperneck 37.912 -2.37797 1.86948
head 14.8902 -0.752982 0.362443
rclavicle 1.08959e-014 7.55382e-015
rhumerus -56.3174 13.237 -93.2276
rradius 19.7418
rwrist -8.65987
rhand 27.1634 4.59467
rfingers 7.12502
rthumb 51.1396 -16.0085
lclavicle 1.08959e-014 7.55382e-015
lhumerus -50.724 -15.0372 91.623
lradius 36.3653
lwrist 1.25273
lhand 20.3503 16.7227
lfingers 7.12502
lthumb 44.8612 40.2767
rfemur -18.4846 -1.75472 31.3958
rtibia 42.8908
rfoot 22.9407 -22.353
rtoes 16.7774
lfemur -48.3748 5.06347 -32.1812
ltibia 39.7498
lfoot -50.6877 28.4568
ltoes 24.272
431
root 0.506814 16.4426 -13.9544 26.5354 -9.36733 -3.55763
lowerback -19.5498 1.31519 -3.96383
upperback -10.6251 2.30163 1.29874
thorax -0.771099 1.35902 4.04027
lowerneck -10.2905 -1.00091 0.304695
upperneck 37.7092 -2.42122 1.96736
head 14.8035 -0.755905 0.390547
rclavicle 1.24613e-014 1.98785e-016
rhumerus -56.1379 13.1242 -93.0573
rradius 19.7557
rwrist -8.60718
rhand 27.5195 4.66248
rfingers 7.12502
rthumb 51.4637 -15.7564
lclavicle 1.24613e-014 1.98785e-016
lhumerus -50.5525 -15.4339 91.8048
lradius 36.4415
lwrist 1.20238
lhand 20.8042 17.2518
lfingers 7.12502
lthumb 45.2835 40.6388
rfemur -18.5103 -1.67639 31.2754
rtibia 42.8618
rfoot 23.4505 -22.259
rtoes 17.0681
lfemur -48.3837 5.03469 -32.2534
ltibia 39.7476
lfoot -50.7751 28.5486
ltoes 24.09
432
root 0.503152 16.4438 -13.9565 26.5918 -9.42406 -3.61981
lowerback -19.6298 1.32919 -3.92215
upperback -10.5982 2.31561 1.30051
thorax -0.700545 1.36186 4.02477
lowerneck -10.2171 -0.960084 0.396425
upperneck 37.4526 -2.38614 2.00116
head 14.6618 -0.726652 0.392473
rclavicle -7.45443e-017 1.59028e-015
rhumerus -56.0978 13.2246 -93.0954
rradius 19.9033
rwrist -8.75664
rhand 27.7411 4.7847
rfingers 7.12502
rthumb 51.6651 -15.5178
lclavicle -7.45443e-017 1.59028e-015
lhumerus -50.4463 -15.7627 92.0193
lradius 36.4578
lwrist 1.16707
lhand 20.8086 17.3583
lfingers 7.12502
lthumb 45.2876 40.7437
rfemur -18.5375 -1.63497 31.3348
rtibia 42.8212
rfoot 23.0783 -21.9318
rtoes 15.5496
lfemur -48.4586 5.0805 -32.2047
ltibia 39.7397
lfoot -50.7564 28.5959
ltoes 24.3144
433
root 0.501723 16.445 -13.9602 26.6245 -9.43451 -3.57828
lowerback -19.6085 1.25499 -4.00839
upperback -10.5777 2.23084 1.36402
thorax -0.688484 1.32399 4.12619
lowerneck -10.1978 -0.883294 0.422529
upperneck 37.1787 -2.26573 1.99496
head 14.5243 -0.675253 0.401756
rclavicle 2.52208e-015 2.38542e-015
rhumerus -56.0797 13.5085 -93.1104
rradius 20.0784
rwrist -8.89995
rhand 28.039 4.43902
rfingers 7.12502
rthumb 51.9355 -15.7048
lclavicle 2.52208e-015 2.38542e-015
lhumerus -50.3804 -15.8119 92.2078
lradius 36.5561
lwrist 0.932748
lhand 20.5226 17.3143
lfingers 7.12502
lthumb 45.0216 40.8054
rfemur -18.5709 -1.7039 31.2969
rtibia 42.7936
rfoot 23.4897 -21.6839
rtoes 16.001
lfemur -48.5431 5.05064 -32.229
ltibia 39.7137
lfoot -50.715 28.8311
ltoes 24.319
434
root 0.504099 16.4457 -13.962 26.603 -9.38776 -3.62495
lowerback -19.4914 1.25117 -3.90146
upperback -10.58 2.20396 1.38675
thorax -0.742693 1.30782 4.08049
lowerneck -10.274 -0.816517 0.403184
upperneck 36.996 -2.20399 2.12866
head 14.457 -0.634507 0.468007
rclavicle -1.19147e-014 -1.77912e-014
rhumerus -56.149 13.7899 -93.2752
rradius 20.127
rwrist -9.15995
rhand 28.2412 3.82216
rfingers 7.12502
rthumb 52.119 -16.2125
lclavicle -1.19147e-014 -1.77912e-014
lhumerus -50.3746 -16.0094 92.4377
lradius 36.4953
lwrist 0.690685
lhand 20.2201 17.1251
lfingers 7.12502
lthumb 44.7401 40.7263
rfemur -18.4915 -1.86927 31.3572
rtibia 42.7344
rfoot 23.1304 -20.998
rtoes 13.7896
lfemur -48.5242 5.07595 -32.1831
ltibia 39.7282
lfoot -50.7444 28.6612
ltoes 24.4761
435
root 0.504294 16.4461 -13.9625 26.556 -9.38268 -3.69046
lowerback -19.3927 1.3063 -3.76776
upperback -10.5645 2.25243 1.33731
thorax -0.770741 1.32526 3.95692
lowerneck -10.4544 -0.851002 0.388045
upperneck 36.8574 -2.31325 2.30049
head 14.4382 -0.660559 0.523143
rclavicle -1.39274e-014 -1.66979e-014
rhumerus -56.1306 13.7961 -93.3317
rradius 20.1616
rwrist -9.23835
rhand 28.2626 3.45588
rfingers 7.12502
rthumb 52.1384 -16.5672
lclavicle -1.39274e-014 -1.66979e-014
lhumerus -50.3103 -16.2882 92.554
lradius 36.377
lwrist 0.586603
lhand 19.6864 16.6003
lfingers 7.12502
lthumb 44.2428 40.392
rfemur -18.3776 -1.92982 31.4274
rtibia 42.6719
rfoot 23.6174 -20.7468
rtoes 13.8748
lfemur -48.4671 5.12136 -32.1325
ltibia 39.7622
lfoot -50.746 28.7845
ltoes 23.787
436
root 0.501233 16.4441 -13.9654 26.5136 -9.35495 -3.77077
lowerback -19.2271 1.32879 -3.71086
upperback -10.6051 2.26719 1.34803
thorax -0.897595 1.33442 3.93134
lowerneck -10.3932 -0.898939 0.262532
upperneck 36.6533 -2.42426 2.51835
head 14.3359 -0.699708 0.616836
rclavicle 2.32454e-014 4.17448e-015
rhumerus -56.1822 13.6479 -93.1591
rradius 20.3046
rwrist -9.07503
rhand 28.3785 3.18752
rfingers 7.12502
rthumb 52.2434 -16.7724
lclavicle 2.32454e-014 4.17448e-015
lhumerus -50.3226 -16.2778 92.5688
lradius 36.5445
lwrist 0.592207
lhand 19.5462 16.572
lfingers 7.12502
lthumb 44.1121 40.4129
rfemur -18.2571 -1.84528 31.5508
rtibia 42.6151
rfoot 22.8831 -20.9216
rtoes 13.6098
lfemur -48.4662 5.08448 -31.9893
ltibia 39.8235
lfoot -50.8298 28.9616
ltoes 23.2318
437
root 0.497109 16.4428 -13.9642 26.5516 -9.46409 -3.9269
lowerback -19.1787 1.37765 -3.64158
upperback -10.687 2.31587 1.41294
thorax -1.01596 1.36202 3.96585
lowerneck -10.019 -0.911442 0.0122849
upperneck 36.3238 -2.46617 2.8085
head 14.1066 -0.721299 0.771955
rclavicle 3.60297e-016 1.86858e-014
rhumerus -56.4544 13.9242 -93.401
rradius 20.3704
rwrist -9.37566
rhand 28.3804 2.90011
rfingers 7.12502
rthumb 52.2451 -17.0588
lclavicle 3.60297e-016 1.86858e-014
lhumerus -50.5179 -16.2781 92.7215
lradius 36.7205
lwrist 0.538258
lhand 19.6157 16.7501
lfingers 7.12502
lthumb 44.1769 40.5666
rfemur -18.2006 -1.66864 31.6813
rtibia 42.5841
rfoot 22.5511 -21.2089
rtoes 14.0022
lfemur -48.5284 5.1684 -31.8303
ltibia 39.8864
lfoot -50.9044 28.8906
ltoes 23.9328
438
root 0.489482 16.4406 -13.9687 26.689 -9.70803 -4.08977
lowerback -19.214 1.43372 -3.68691
upperback -10.7491 2.39429 1.50526
thorax -1.0813 1.40911 4.10335
lowerneck -9.79241 -0.907756 -0.172988
upperneck 36.0152 -2.46545 2.99323
head 13.9191 -0.727553 0.877265
rclavicle -1.24365e-014 -1.80894e-014
rhumerus -56.5656 14.2705 -93.6542
rradius 20.2518
rwrist -9.7759
rhand 28.3183 2.89254
rfingers 7.12502
rthumb 52.1888 -17.1003
lclavicle -1.24365e-014 -1.80894e-014
lhumerus -50.6353 -16.2469 92.8945
lradius 36.7255
lwrist 0.167201
lhand 19.7583 16.7852
lfingers 7.12502
lthumb 44.3099 40.5516
rfemur -18.2504 -1.25012 31.7904
rtibia 42.469
rfoot 22.3733 -21.5079
rtoes 13.9896
lfemur -48.7411 5.32312 -31.7049
ltibia 39.9958
lfoot -51.2409 28.3752
ltoes 24.9408
439
root 0.482252 16.441 -13.9795 26.8667 -9.66538 -4.08103
lowerback -19.2028 1.35037 -3.821
upperback -10.8631 2.30372 1.57342
thorax -1.21369 1.37728 4.23377
lowerneck -9.65911 -0.882468 -0.289898
upperneck 35.804 -2.43924 3.13286
head 13.7962 -0.717439 0.955921
rclavicle -3.08489e-014 -1.33186e-014
rhumerus -56.7156 14.6044 -93.8973
rradius 20.3186
rwrist -10.1165
rhand 28.4094 2.78573
rfingers 7.12502
rthumb 52.2714 -17.1573
lclavicle -3.08489e-014 -1.33186e-014
lhumerus -50.7759 -16.1359 92.9833
lradius 36.8496
lwrist -0.217232
lhand 19.9356 16.6323
lfingers 7.12502
lthumb 44.4751 40.3356
rfemur -18.4096 -1.15444 31.8652
rtibia 42.3162
rfoot 22.3259 -21.489
rtoes 13.4831
lfemur -49.0546 5.53153 -31.8385
ltibia 40.1188
lfoot -51.0118 28.2955
ltoes 24.3218
440
root 0.489972 16.4353 -13.9407 26.0564 -10.1915 -4.41997
lowerback -18.9784 1.66549 -3.36173
upperback -10.4846 2.6396 1.56634
thorax -0.92068 1.51073 4.02233
lowerneck -9.61315 -0.891067 -0.26093
upperneck 35.6409 -2.47892 3.20828
head 13.7143 -0.723212 0.973435
rclavicle -5.27525e-014 -4.79071e-014
rhumerus -56.6491 14.4261 -93.7183
rradius 20.2935
rwrist -9.91803
rhand 28.6546 2.86514
rfingers 7.12502
rthumb 52.4934 -16.9428
lclavicle -5.27525e-014 -4.79071e-014
lhumerus -50.7526 -16.0601 92.9135
lradius 37.0359
lwrist -0.424096
lhand 19.3976 15.4852
lfingers 7.12502
lthumb 43.9735 39.3779
rfemur -17.1036 -1.11456 31.8109
rtibia 42.0917
rfoot 22.2274 -20.9504
rtoes 12.706
lfemur -47.9663 5.6473 -31.3842
ltibia 40.2325
lfoot -52.0885 28.07
ltoes 24.7301
441
root 0.492849 16.43 -13.9293 25.7685 -10.314 -4.5337
lowerback -18.8562 1.78652 -3.18718
upperback -10.2812 2.7705 1.51821
thorax -0.760226 1.56055 3.89425
lowerneck -9.93865 -0.890541 -0.0962971
upperneck 35.5546 -2.54447 3.28205
head 13.7496 -0.716955 0.962308
rclavicle 3.41164e-014 2.40529e-014
rhumerus -56.4838 14.2752 -93.6299
rradius 20.246
rwrist -9.85933
rhand 28.5258 2.98431
rfingers 7.12502
rthumb 52.3768 -16.8949
lclavicle 3.41164e-014 2.40529e-014
lhumerus -50.54 -16.2263 92.9172
lradius 37.0643
lwrist -0.548938
lhand 19.7447 16.0651
lfingers 7.12502
lthumb 44.2972 39.8362
rfemur -16.56 -1.15069 31.8107
rtibia 41.9396
rfoot 21.8375 -21.0801
rtoes 13.7402
lfemur -47.6104 5.54227 -31.151
ltibia 40.2831
lfoot -52.4603 28.0665
ltoes 25.0803
442
root 0.489576 16.4235 -13.935 25.8008 -10.3809 -4.27083
lowerback -18.8036 1.72931 -3.52441
upperback -10.2976 2.74919 1.42858
thorax -0.817857 1.56324 3.98334
lowerneck -10.167 -0.888856 -0.013497
upperneck 35.4792 -2.60713 3.40671
head 13.77 -0.715009 0.986923
rclavicle -1.10325e-014 -1.98785e-016
rhumerus -56.4746 14.0894 -93.4933
rradius 20.323
rwrist -9.7338
rhand 28.6632 2.99307
rfingers 7.12502
rthumb 52.5011 -16.8101
lclavicle -1.10325e-014 -1.98785e-016
lhumerus -50.4123 -16.3972 93.035
lradius 36.9741
lwrist -0.79704
lhand 20.2992 16.845
lfingers 7.12502
lthumb 44.8137 40.4175
rfemur -16.566 -1.05236 31.5607
rtibia 41.8785
rfoot 21.3082 -21.4653
rtoes 15.1634
lfemur -47.7109 5.52182 -31.4483
ltibia 40.2677
lfoot -52.49 27.902
ltoes 25.4717
